<?xml version="1.0" standalone="no"?>
<!DOCTYPE svg PUBLIC "-//W3C//DTD SVG 20010904//EN"
 "http://www.w3.org/TR/2001/REC-SVG-20010904/DTD/svg10.dtd">
<svg version="1.0" xmlns="http://www.w3.org/2000/svg"
 width="260.000000pt" height="260.000000pt" viewBox="0 0 260.000000 260.000000"
 preserveAspectRatio="xMidYMid meet">
<metadata>
Created by potrace 1.11, written by Peter Selinger 2001-2013
</metadata>
<g transform="translate(0.000000,260.000000) scale(0.100000,-0.100000)"
fill="#000000" stroke="none">
<path d="M1219 2596 c-2 -2 -22 -6 -44 -9 -272 -38 -537 -204 -723 -455 -102
-137 -201 -365 -227 -521 -3 -19 -7 -37 -9 -40 -16 -26 -23 -288 -11 -390 17
-151 66 -325 124 -440 l30 -59 -19 -64 c-75 -244 -180 -599 -180 -607 0 -5 35
3 78 19 42 15 179 64 304 109 124 44 231 81 237 81 6 0 35 -13 64 -30 98 -55
246 -102 362 -115 329 -36 625 69 871 310 115 113 175 196 244 335 141 283
179 585 114 915 -15 74 -70 228 -111 310 -61 121 -131 220 -222 314 -174 180
-330 266 -593 327 -26 6 -284 15 -289 10z m251 -222 c106 -19 144 -31 235 -74
234 -112 430 -345 516 -613 53 -166 68 -415 34 -567 -9 -41 -18 -85 -21 -98
-2 -13 -15 -51 -28 -85 -96 -255 -270 -455 -492 -566 -123 -61 -209 -82 -349
-87 -196 -6 -360 40 -517 143 l-38 26 -176 -63 c-96 -34 -177 -60 -179 -58 -2
2 22 89 54 193 l58 190 -22 35 c-147 237 -195 577 -124 865 45 184 136 349
267 487 140 147 334 252 504 273 29 4 54 8 56 10 9 8 156 1 222 -11z"/>
<path d="M874 1913 c-110 -114 -139 -276 -78 -443 69 -191 268 -465 426 -587
108 -83 334 -183 414 -183 56 0 135 27 185 64 56 41 87 100 95 182 l6 60 -43
29 c-100 67 -234 136 -253 129 -8 -3 -40 -39 -71 -80 -39 -52 -62 -74 -77 -74
-41 0 -187 99 -259 177 -80 85 -159 211 -159 252 0 12 23 52 51 88 45 59 50
70 44 101 -13 70 -95 297 -112 310 -9 6 -43 12 -74 12 -54 0 -61 -3 -95 -37z"/>
</g>
</svg>
